<!-- icon666.com - MILLIONS vector ICONS FREE --><svg viewBox="0 0 64 64" xmlns="http://www.w3.org/2000/svg" xmlns:xlink="http://www.w3.org/1999/xlink"><linearGradient id="linear-gradient" gradientUnits="userSpaceOnUse" x1="13.892" x2="42.176" y1="50.108" y2="21.824"><stop offset=".1686" stop-color="#5932e6"></stop><stop offset=".2107" stop-color="#6732e6"></stop><stop offset=".28" stop-color="#7932e6"></stop><stop offset=".3552" stop-color="#8332e6"></stop><stop offset=".4467" stop-color="#8632e6"></stop><stop offset=".5253" stop-color="#8a32e6"></stop><stop offset=".6074" stop-color="#9732e6"></stop><stop offset=".691" stop-color="#ac32e6"></stop><stop offset=".715" stop-color="#b332e6"></stop><stop offset=".9302" stop-color="#e032e6"></stop></linearGradient><g id="service"><path d="m12 32v-19a1 1 0 0 1 1-1h35.5859l-2.2929-2.293a1 1 0 0 1 1.414-1.414l4 4a1.0034 1.0034 0 0 1 0 1.4146l-4 4a1 1 0 0 1 -1.414-1.414l2.2929-2.2936h-34.5859v18a1 1 0 0 1 -2 0zm39-1a1 1 0 0 0 -1 1v18h-34.5859l2.2929-2.293a1 1 0 0 0 -1.414-1.414l-4 4a1.0034 1.0034 0 0 0 0 1.4146l4 4a1 1 0 0 0 1.414-1.414l-2.2929-2.2936h35.5859a1 1 0 0 0 1-1v-19a1 1 0 0 0 -1-1zm-19-12a13 13 0 1 1 -13 13 13.0144 13.0144 0 0 1 13-13zm0 2a11 11 0 1 0 11 11 11.0125 11.0125 0 0 0 -11-11zm-2 5h-4a1 1 0 0 0 0 2h3v3h-3a1 1 0 0 0 -1 1v5a1 1 0 0 0 1 1h4a1 1 0 0 0 0-2h-3v-3h3a1 1 0 0 0 1-1v-5a1 1 0 0 0 -1-1zm4 7h3v4a1 1 0 0 0 2 0v-10a1 1 0 0 0 -2 0v4h-2v-4a1 1 0 0 0 -2 0v5a1 1 0 0 0 1 1z" fill="url(#linear-gradient)" style="fill: rgb(59, 30, 84);"></path></g></svg>